<?xml version="1.0" encoding="iso-8859-1"?>
<!-- Uploaded to: SVG Repo, www.svgrepo.com, Generator: SVG Repo Mixer Tools -->
<svg height="800px" width="800px" version="1.1" id="Layer_1" xmlns="http://www.w3.org/2000/svg" xmlns:xlink="http://www.w3.org/1999/xlink" 
	 viewBox="0 0 273.559 273.559" xml:space="preserve">
<g>
	<path style="fill:#1D1D1B;" d="M273.428,118.089c1.326,14.025-7.796,33.475-11.694,46.977
		c-5.626,19.611-11.774,39.101-19.008,58.189c-0.322,0.764-1.005,1.005-1.648,0.965c-0.322,0.723-1.085,1.286-2.09,1.045
		C159.3,206.739,78.728,183.713,1.852,155.663c-0.965-0.321-0.844-1.487-0.121-1.808c-0.362-0.161-0.723-0.362-1.045-0.563
		c-0.402-0.201-0.723-0.723-0.683-1.165c1.366-14.989,10.408-31.425,15.512-45.57C22.388,87.508,29.34,68.5,36.292,49.492
		c0.08-0.201,0.201-0.321,0.322-0.482c0.08-0.482,0.482-0.924,1.125-0.723c0.12,0.08,0.281,0.08,0.402,0.161
		c0.241,0,0.522,0.08,0.723,0.201c38.739,12.739,78.442,21.057,117.021,34.399c37.373,12.9,76.232,21.499,114.328,32.108
		c0.563,0.161,0.924,0.482,1.125,0.924l1.206,0.482C273.106,116.803,273.347,117.526,273.428,118.089z M255.947,171.375
		c2.009-6.711,17.119-47.74,13.462-52.603c-0.04-0.04-0.121,0-0.201-0.04c-20.213-5.184-40.588-10.207-60.801-15.672
		c-18.043-4.903-35.966-10.127-53.567-16.195C116.623,73.684,76.799,65.928,39.266,50.979c-6.43,17.601-12.819,35.243-19.209,52.884
		c-3.014,8.359-6.028,16.677-9.042,24.995c-2.25,6.189-9.403,18.003-7.957,24.594c0.04,0.201-0.04,0.362-0.121,0.482
		c58.832,14.828,116.297,34.56,174.647,51.277c20.655,5.988,41.431,11.574,62.408,16.436c0.04,0.04,0.08,0.08,0.121,0.08
		C245.418,204.97,250.964,188.253,255.947,171.375z"/>
	<path style="fill:#FFFBCC;" d="M269.409,118.772c3.657,4.863-11.453,45.892-13.462,52.603
		c-4.983,16.878-10.529,33.595-15.833,50.353c-0.04,0-0.08-0.04-0.121-0.08c-20.977-4.862-41.753-10.448-62.408-16.436l0.362-1.246
		c0.482,0.161,1.085,0,1.246-0.603c0.643-2.371,1.567-4.661,2.09-7.033c0.121-0.603-0.402-1.206-0.924-1.206l1.246-5.425
		c0.362,0.121,0.804,0,0.964-0.482c0.482-1.366,1.085-2.733,1.246-4.179c0.08-0.603-0.362-0.924-0.804-0.924l1.688-4.943
		c0.281,0.08,0.643,0.04,0.804-0.321c1.005-2.09,2.009-4.059,2.291-6.349c0.08-0.522-0.362-0.804-0.804-0.804l1.085-3.536
		c0.201,0,0.362-0.121,0.482-0.362c0.723-1.728,1.728-3.536,1.808-5.385c0.04-0.603-0.482-0.924-0.965-0.924l2.773-6.791
		c0.522,0.161,1.246-0.161,1.206-0.844c-0.04-1.406,0.643-2.451,1.045-3.737c0.241-0.764-0.402-1.286-1.045-1.286l1.688-5.747
		c0.362,0.161,0.844,0.08,1.045-0.362c0.643-1.326,1.487-2.693,1.728-4.179c0.121-0.683-0.402-1.165-0.924-1.165l2.893-5.224
		c0.442,0.201,1.045,0.04,1.246-0.603c0.563-1.849,1.487-3.858,1.286-5.827c-0.08-0.563-0.522-0.964-1.005-0.964l1.326-3.778
		c0.362,0.161,0.763,0.08,1.005-0.362c0.804-1.326,1.768-2.692,2.17-4.179c0.161-0.563-0.402-1.165-0.965-1.165l0.08-2.17
		c0.322,0,0.643-0.12,0.884-0.442c1.045-1.366,2.29-3.215,2.17-4.983c-0.04-0.442-0.281-0.764-0.603-0.884l1.005-3.737
		c20.213,5.465,40.588,10.489,60.801,15.672C269.289,118.772,269.369,118.732,269.409,118.772z M266.837,131.069
		c0.763-4.019-1.125-8.198-3.858-11.091c-0.764-0.764-2.25,0.322-1.567,1.246c2.25,2.974,2.813,5.947,3.255,9.524
		C264.828,131.873,266.556,132.395,266.837,131.069z M262.136,135.288c0.161-3.215-0.522-6.189-1.808-9.122
		c-0.482-1.085-2.331-0.322-1.889,0.763c1.045,2.692,1.607,5.465,1.768,8.359C260.287,136.534,262.095,136.534,262.136,135.288z
		 M242.324,186.887c0.161-0.924-0.241-1.648-1.125-1.969c-11.855-4.139-23.83-8.037-35.926-11.413
		c-0.844-0.201-1.648,0.322-1.889,1.085c-0.362,1.045-0.723,2.09-1.085,3.094c-0.643,1.889,2.291,2.652,2.934,0.844
		c1.045-2.934,5.063-0.322,7.555,0.442c2.773,0.844,5.546,1.688,8.318,2.532c6.028,1.889,11.975,3.938,17.883,6.028
		c-0.362,2.13-0.763,4.26-1.125,6.43c-11.533-5.747-23.509-10.368-36.167-12.819c-1.045-0.201-1.447,1.246-0.442,1.567
		c12.659,4.34,25.036,8.961,36.971,14.989c0.844,0.402,2.17,0.12,2.371-0.964C241.159,193.437,241.761,190.142,242.324,186.887z
		 M237.863,204.006c0.281-0.804-0.322-1.768-1.085-1.969c-13.101-3.134-25.799-7.474-38.217-12.658
		c-1.045-0.442-1.969,0.643-2.049,1.567c-0.08,1.206-0.201,2.411-0.281,3.657c-0.121,1.607,2.572,2.009,2.853,0.362
		c0.08-0.603,0.201-1.165,0.281-1.768c5.144,2.21,10.368,4.26,15.672,6.068c2.974,1.005,18.043,3.657,18.807,6.711
		c2.09,8.198-15.632-0.362-17.722-1.085c-7.073-2.451-14.105-4.943-21.339-6.872c-0.884-0.241-1.527,1.085-0.643,1.487
		c6.912,3.134,14.065,5.706,21.178,8.278c5.224,1.929,12.498,6.309,18.124,5.746c0.723-0.08,1.246-0.442,1.487-1.125
		C235.894,209.592,236.899,206.819,237.863,204.006z"/>
	<path style="fill:#1D1D1B;" d="M262.98,119.978c2.733,2.893,4.621,7.073,3.858,11.091c-0.281,1.326-2.009,0.804-2.17-0.322
		c-0.442-3.576-1.005-6.55-3.255-9.524C260.729,120.299,262.216,119.214,262.98,119.978z"/>
	<path style="fill:#1D1D1B;" d="M260.327,126.166c1.286,2.933,1.969,5.907,1.808,9.122c-0.04,1.246-1.849,1.246-1.929,0
		c-0.161-2.893-0.723-5.666-1.768-8.359C257.997,125.845,259.845,125.081,260.327,126.166z"/>
	<path style="fill:#1D1D1B;" d="M241.199,184.918c0.884,0.322,1.286,1.045,1.125,1.969c-0.563,3.255-1.165,6.55-1.728,9.846
		c-0.201,1.085-1.527,1.366-2.371,0.964c-11.935-6.028-24.312-10.649-36.971-14.989c-1.005-0.321-0.603-1.768,0.442-1.567
		c12.659,2.451,24.634,7.073,36.167,12.819c0.362-2.17,0.764-4.3,1.125-6.43c-5.907-2.09-11.855-4.139-17.883-6.028
		c-2.773-0.844-5.546-1.688-8.318-2.532c-2.492-0.764-6.51-3.376-7.555-0.442c-0.643,1.808-3.577,1.045-2.934-0.844
		c0.362-1.005,0.723-2.049,1.085-3.094c0.241-0.764,1.045-1.286,1.889-1.085C217.369,176.881,229.344,180.779,241.199,184.918z"/>
	<path style="fill:#1D1D1B;" d="M236.778,202.037c0.763,0.201,1.366,1.165,1.085,1.969c-0.964,2.813-1.969,5.586-2.934,8.399
		c-0.241,0.683-0.763,1.045-1.487,1.125c-5.626,0.563-12.9-3.818-18.124-5.746c-7.113-2.572-14.266-5.144-21.178-8.278
		c-0.884-0.402-0.241-1.728,0.643-1.487c7.233,1.929,14.266,4.421,21.339,6.872c2.09,0.723,19.812,9.283,17.722,1.085
		c-0.764-3.054-15.833-5.706-18.807-6.711c-5.305-1.808-10.529-3.858-15.672-6.068c-0.08,0.603-0.201,1.165-0.281,1.768
		c-0.281,1.648-2.974,1.246-2.853-0.362c0.08-1.246,0.201-2.451,0.281-3.657c0.08-0.924,1.005-2.009,2.049-1.567
		C210.979,194.562,223.678,198.902,236.778,202.037z"/>
	<path style="fill:#FFFBCC;" d="M208.407,103.059l-1.005,3.737c-0.402-0.121-0.844-0.04-1.165,0.402
		c-0.924,1.326-1.246,3.054-2.17,4.461c-0.482,0.764,0.201,1.447,0.884,1.447l-0.08,2.17c-0.201,0-0.402,0.08-0.563,0.281
		c-0.965,1.246-1.487,2.773-2.09,4.219c-0.241,0.522,0.04,1.045,0.442,1.206l-1.326,3.778c-0.281,0-0.603,0.161-0.804,0.482
		c-1.045,1.648-1.085,3.898-1.366,5.787c-0.08,0.563,0.241,1.005,0.643,1.125l-2.893,5.224c-0.281,0-0.563,0.12-0.804,0.442
		c-0.884,1.206-1.206,2.813-1.648,4.219c-0.161,0.482,0.161,0.884,0.603,1.045l-1.688,5.747c-0.241,0-0.522,0.08-0.723,0.241
		c-1.487,1.206-1.487,3.335-1.085,5.023c0.08,0.322,0.322,0.522,0.603,0.603l-2.773,6.791c-0.322,0-0.643,0.121-0.804,0.442
		c-0.884,1.567-1.005,3.577-1.286,5.345c-0.04,0.442,0.362,0.884,0.764,0.884l-1.085,3.536c-0.281,0-0.563,0.121-0.723,0.362
		c-1.165,1.929-1.567,4.059-2.049,6.229c-0.08,0.402,0.161,0.723,0.482,0.884l-1.688,4.943c-0.442,0-0.884,0.241-1.045,0.643
		c-0.482,1.286-0.603,2.733-0.844,4.059c-0.08,0.442,0.161,0.723,0.482,0.884l-1.246,5.425c-0.201,0-0.402,0.12-0.603,0.322
		c-1.808,2.13-2.451,4.903-2.411,7.635c0,0.442,0.281,0.764,0.603,0.884l-0.362,1.246c-58.35-16.717-115.815-36.448-174.647-51.277
		c0.08-0.121,0.161-0.281,0.121-0.482c-1.447-6.59,5.706-18.405,7.957-24.594c3.014-8.318,6.028-16.637,9.042-24.995
		c6.389-17.642,12.779-35.283,19.209-52.884C76.8,65.929,116.623,73.685,154.84,86.866
		C172.441,92.933,190.364,98.157,208.407,103.059z M176.5,119.455c1.326,0.402,2.21-1.648,0.964-2.25
		c-21.339-10.73-45.972-17.28-69.16-22.464c-1.085-0.281-1.567,1.326-0.482,1.648C131.05,103.26,153.433,112.302,176.5,119.455z
		 M172.039,140.914c1.487,0.362,1.969-1.728,0.643-2.291c-23.509-9.604-49.469-16.798-74.384-21.499
		c-1.125-0.201-1.567,1.366-0.482,1.688C122.169,126.769,147.245,134.565,172.039,140.914z M166.413,167.316
		c1.768,0.482,2.451-2.09,0.763-2.692c-24.915-8.399-49.87-16.677-74.785-25.076c-0.924-0.322-1.567,1.165-0.683,1.527
		C115.779,151.644,141.016,160.646,166.413,167.316z M157.05,185.4c1.567,0.362,2.17-1.929,0.643-2.411
		c-23.911-7.917-48.826-15.954-73.5-21.017c-0.723-0.121-0.964,0.844-0.321,1.125C107.18,172.5,132.577,179.814,157.05,185.4z
		 M94.481,77.903c1.125,0.603,2.13-1.085,1.005-1.728c-3.175-1.688-6.47-2.572-10.046-2.773c-1.165-0.04-1.125,1.688,0,1.808
		C88.614,75.532,91.628,76.497,94.481,77.903z M66.11,100.407c5.264-1.929,17.36-6.751,13.261-13.663
		c-3.416-5.787-13.06-2.009-17.842,0.884c-4.621-6.832-14.748-8.238-21.821-4.983c-1.125,0.522-0.321,2.291,0.804,1.969
		c0.161-0.04,0.321-0.08,0.482-0.08c-0.241,0.321-0.322,0.804,0.04,1.246c1.407,1.808,2.934,3.576,4.461,5.305
		c0.723,0.884,1.527,1.728,2.25,2.612c0.201,0.281,0.402,0.643,0.683,0.884c0.08,0.08,0.161,0.121,0.241,0.161
		c-2.612,1.165-5.465,2.893-7.073,5.224c-1.728-3.456-7.595-7.193-10.368-3.014c-1.447,2.17,0.924,5.264,1.889,7.073
		c2.331,4.501,4.822,8.921,7.434,13.261c0.321,0.522,1.045,0.884,1.607,0.683c1.929-0.723,3.978-1.527,4.863-3.536
		c0.442-1.005,0.603-1.929,0.281-2.974c-0.201-0.804-1.366-1.929-1.487-2.853c2.773-0.12,5.626-1.407,7.796-3.014
		c1.125,4.581,3.496,9.845,6.55,13.623c-0.321,1.567,1.607,3.134,2.813,1.648C67.436,115.356,69.686,106.917,66.11,100.407z
		 M20.459,151.564c0.924,0.201,1.286-1.165,0.362-1.407c-2.652-0.763-4.943-2.17-6.711-4.3c-0.522-0.603-1.607,0.201-1.125,0.844
		C14.913,149.193,17.365,150.921,20.459,151.564z M14.954,153.01c0.763,0.241,1.246-0.924,0.563-1.326
		c-2.974-1.728-5.144-4.099-5.787-7.555c-0.241-1.125-1.889-0.643-1.688,0.482C8.725,148.389,11.216,151.805,14.954,153.01z"/>
	<path style="fill:#1D1D1B;" d="M208.006,107.681c0.12,1.768-1.125,3.617-2.17,4.983c-0.241,0.322-0.563,0.442-0.884,0.442
		c-0.683,0-1.366-0.683-0.884-1.447c0.924-1.407,1.246-3.134,2.17-4.461c0.322-0.442,0.764-0.522,1.165-0.402
		C207.724,106.917,207.965,107.239,208.006,107.681z"/>
	<path style="fill:#1D1D1B;" d="M204.871,115.276c0.563,0,1.125,0.603,0.965,1.165c-0.402,1.487-1.366,2.853-2.17,4.179
		c-0.241,0.442-0.643,0.522-1.005,0.362c-0.402-0.161-0.683-0.683-0.442-1.206c0.603-1.447,1.125-2.974,2.09-4.219
		C204.469,115.356,204.67,115.276,204.871,115.276z"/>
	<path style="fill:#1D1D1B;" d="M202.339,125.724c0.201,1.969-0.723,3.978-1.286,5.827c-0.201,0.643-0.804,0.804-1.246,0.603
		c-0.402-0.12-0.723-0.563-0.643-1.125c0.281-1.889,0.322-4.139,1.366-5.787c0.201-0.322,0.522-0.482,0.804-0.482
		C201.817,124.76,202.259,125.162,202.339,125.724z"/>
	<path style="fill:#1D1D1B;" d="M196.914,137.378c0.522,0,1.045,0.482,0.924,1.165c-0.241,1.487-1.085,2.853-1.728,4.179
		c-0.201,0.442-0.683,0.522-1.045,0.362c-0.442-0.161-0.764-0.563-0.603-1.045c0.442-1.407,0.764-3.014,1.648-4.219
		C196.352,137.499,196.633,137.378,196.914,137.378z"/>
	<path style="fill:#1D1D1B;" d="M193.378,148.831c0.643,0,1.286,0.522,1.045,1.286c-0.402,1.286-1.085,2.331-1.045,3.737
		c0.04,0.683-0.683,1.005-1.206,0.844c-0.281-0.08-0.522-0.281-0.603-0.603c-0.402-1.688-0.402-3.818,1.085-5.023
		C192.856,148.911,193.137,148.831,193.378,148.831z"/>
	<path style="fill:#1D1D1B;" d="M189.399,161.489c0.482,0,1.005,0.322,0.965,0.924c-0.08,1.849-1.085,3.657-1.808,5.385
		c-0.12,0.241-0.281,0.362-0.482,0.362c-0.402,0-0.804-0.442-0.764-0.884c0.281-1.768,0.402-3.777,1.286-5.345
		C188.757,161.61,189.078,161.489,189.399,161.489z"/>
	<path style="fill:#1D1D1B;" d="M186.988,171.697c0.442,0,0.884,0.281,0.804,0.804c-0.281,2.291-1.286,4.26-2.291,6.349
		c-0.161,0.362-0.522,0.402-0.804,0.321c-0.322-0.161-0.563-0.482-0.482-0.884c0.482-2.17,0.884-4.3,2.049-6.229
		C186.426,171.817,186.707,171.697,186.988,171.697z"/>
	<path style="fill:#1D1D1B;" d="M183.01,184.114c0.442,0,0.884,0.322,0.804,0.924c-0.161,1.447-0.764,2.813-1.246,4.179
		c-0.161,0.482-0.603,0.603-0.964,0.482c-0.321-0.161-0.563-0.442-0.482-0.884c0.241-1.326,0.362-2.773,0.844-4.059
		C182.126,184.355,182.568,184.114,183.01,184.114z"/>
	<path style="fill:#1D1D1B;" d="M180.358,195.125c0.522,0,1.045,0.603,0.924,1.206c-0.522,2.371-1.447,4.662-2.09,7.033
		c-0.161,0.603-0.764,0.764-1.246,0.603c-0.322-0.12-0.603-0.442-0.603-0.884c-0.04-2.733,0.603-5.505,2.411-7.635
		C179.956,195.245,180.157,195.125,180.358,195.125z"/>
	<path style="fill:#1D1D1B;" d="M177.464,117.205c1.246,0.603,0.362,2.652-0.964,2.25c-23.067-7.153-45.45-16.195-68.677-23.067
		c-1.085-0.322-0.603-1.929,0.482-1.648C131.492,99.925,156.126,106.475,177.464,117.205z"/>
	<path style="fill:#1D1D1B;" d="M172.682,138.624c1.326,0.563,0.844,2.652-0.643,2.291c-24.795-6.349-49.87-14.145-74.223-22.102
		c-1.085-0.322-0.643-1.889,0.482-1.688C123.214,121.826,149.174,129.019,172.682,138.624z"/>
	<path style="fill:#1D1D1B;" d="M167.177,164.624c1.688,0.603,1.005,3.175-0.763,2.692c-25.397-6.671-50.634-15.672-74.705-26.241
		c-0.884-0.362-0.241-1.848,0.683-1.527C117.306,147.947,142.262,156.225,167.177,164.624z"/>
	<path style="fill:#1D1D1B;" d="M157.693,182.989c1.527,0.482,0.924,2.773-0.643,2.411c-24.473-5.586-49.87-12.9-73.178-22.303
		c-0.643-0.281-0.402-1.246,0.321-1.125C108.867,167.035,133.782,175.072,157.693,182.989z"/>
	<path style="fill:#1D1D1B;" d="M95.486,76.175c1.125,0.643,0.12,2.331-1.005,1.728c-2.853-1.407-5.867-2.371-9.042-2.693
		c-1.125-0.12-1.165-1.848,0-1.808C89.016,73.603,92.311,74.487,95.486,76.175z"/>
	<path style="fill:#1D1D1B;" d="M79.371,86.744c4.099,6.912-7.997,11.734-13.261,13.663c3.576,6.51,1.326,14.949-3.135,20.455
		c-1.206,1.487-3.134-0.08-2.813-1.648c-3.054-3.777-5.425-9.042-6.55-13.623c-2.17,1.607-5.023,2.893-7.796,3.014
		c0.121,0.924,1.286,2.049,1.487,2.853c0.321,1.045,0.161,1.969-0.281,2.974c-0.884,2.009-2.934,2.813-4.863,3.536
		c-0.563,0.201-1.286-0.161-1.607-0.683c-2.612-4.34-5.104-8.76-7.434-13.261c-0.964-1.808-3.335-4.903-1.889-7.073
		c2.773-4.179,8.64-0.442,10.368,3.014c1.607-2.331,4.461-4.059,7.073-5.224c-0.08-0.04-0.161-0.08-0.241-0.161
		c-0.281-0.241-0.482-0.603-0.683-0.884c-0.723-0.884-1.527-1.728-2.25-2.612c-1.527-1.728-3.054-3.496-4.461-5.305
		c-0.362-0.442-0.281-0.924-0.04-1.246c-0.161,0-0.322,0.04-0.482,0.08c-1.125,0.321-1.929-1.447-0.804-1.969
		c7.073-3.255,17.199-1.849,21.821,4.983C66.311,84.735,75.955,80.957,79.371,86.744z M76.719,90.079
		c-0.322-0.804-0.603-1.607-0.924-2.451c-1.648-1.286-5.264-0.322-6.992,0.04c-2.532,0.563-4.983,1.407-7.354,2.451
		c-0.08,0.04-0.12,0-0.201,0.04c-0.522,0.241-1.206,0.241-1.768-0.201c-5.144-4.38-10.569-6.912-17.24-5.706
		c0.08,0.04,0.161,0.04,0.201,0.08c2.049,1.849,4.099,3.697,5.988,5.706c1.005,1.085,3.617,3.175,2.09,4.822c0,0-0.04,0-0.04,0.04
		c0.08,0.241,0.08,0.563-0.161,0.763c-1.286,1.005-2.532,2.05-3.657,3.295c-1.125,1.205-2.09,2.652-3.335,3.737
		c-0.924,0.804-2.13,0.322-2.451-0.563c-0.281,0-0.563-0.12-0.723-0.442c-0.522-1.045-1.165-1.808-2.13-2.492
		c-0.965-0.643-3.657-1.728-4.139,0.161c-0.241,0.924,2.21,4.26,2.692,5.144c1.849,3.456,3.818,6.831,5.787,10.207
		c1.246-0.764,2.009-1.889,1.567-3.456c-0.121-0.482-0.683-0.884-0.884-1.366c-0.362-0.924-0.362-1.407-0.08-2.17
		c-0.322-0.763,0-1.808,0.884-2.049c1.487-0.442,3.134-0.442,4.661-0.723c1.567-0.281,3.054-0.723,4.541-1.206
		c0.362-0.121,0.723,0.08,0.965,0.402c0.603-0.563,1.607-0.643,2.049,0.281c1.246,2.492,2.13,5.184,3.255,7.716
		c0.723,1.648,1.487,3.255,2.17,4.903c3.376-5.023,3.496-10.529,2.572-16.476c-0.965-0.603-1.286-2.331-0.04-2.853
		c2.291-0.965,4.621-1.929,6.832-3.054c1.085-0.563,2.17-1.085,3.215-1.768C75.272,92.29,76.156,91.325,76.719,90.079z"/>
	<path style="fill:#FFED33;" d="M75.795,87.628c0.321,0.844,0.603,1.648,0.924,2.451c-0.563,1.246-1.447,2.21-2.652,2.813
		c-1.045,0.683-2.13,1.206-3.215,1.768c-2.21,1.125-4.541,2.09-6.832,3.054c-1.246,0.522-0.924,2.25,0.04,2.853
		c0.924,5.948,0.804,11.453-2.572,16.476c-0.683-1.648-1.447-3.255-2.17-4.903c-1.125-2.532-2.009-5.224-3.255-7.716
		c-0.442-0.924-1.447-0.844-2.049-0.281c-0.241-0.321-0.603-0.522-0.965-0.402c-1.487,0.482-2.974,0.924-4.541,1.206
		c-1.527,0.281-3.175,0.281-4.661,0.723c-0.884,0.241-1.206,1.286-0.884,2.049c-0.281,0.764-0.281,1.246,0.08,2.17
		c0.201,0.482,0.764,0.884,0.884,1.366c0.442,1.567-0.321,2.692-1.567,3.456c-1.969-3.376-3.938-6.751-5.787-10.207
		c-0.482-0.884-2.934-4.219-2.692-5.144c0.482-1.889,3.175-0.804,4.139-0.161c0.964,0.683,1.607,1.447,2.13,2.492
		c0.161,0.322,0.442,0.442,0.723,0.442c0.321,0.884,1.527,1.366,2.451,0.563c1.246-1.085,2.21-2.532,3.335-3.737
		c1.125-1.246,2.371-2.291,3.657-3.295c0.241-0.201,0.241-0.522,0.161-0.763c0-0.04,0.04-0.04,0.04-0.04
		c1.527-1.648-1.085-3.737-2.09-4.822c-1.889-2.009-3.938-3.858-5.988-5.706c-0.04-0.04-0.121-0.04-0.201-0.08
		c6.671-1.206,12.096,1.326,17.24,5.706c0.563,0.442,1.246,0.442,1.768,0.201c0.08-0.04,0.121,0,0.201-0.04
		c2.371-1.045,4.822-1.889,7.354-2.451C70.53,87.307,74.147,86.342,75.795,87.628z"/>
	<path style="fill:#1D1D1B;" d="M20.821,150.157c0.924,0.241,0.563,1.607-0.362,1.407c-3.094-0.643-5.546-2.371-7.474-4.863
		c-0.482-0.643,0.603-1.447,1.125-0.844C15.878,147.987,18.168,149.394,20.821,150.157z"/>
	<path style="fill:#1D1D1B;" d="M15.516,151.684c0.683,0.402,0.201,1.567-0.563,1.326c-3.737-1.206-6.229-4.621-6.912-8.399
		c-0.201-1.125,1.447-1.607,1.688-0.482C10.372,147.585,12.542,149.956,15.516,151.684z"/>
</g>
</svg>